<?xml version="1.0" encoding="iso-8859-1"?>
<!-- Generator: Adobe Illustrator 19.0.0, SVG Export Plug-In . SVG Version: 6.00 Build 0)  -->
<svg version="1.1" id="Layer_1" xmlns="http://www.w3.org/2000/svg" xmlns:xlink="http://www.w3.org/1999/xlink" x="0px" y="0px"
	 viewBox="0 0 512 512" style="enable-background:new 0 0 512 512;" xml:space="preserve" fill="#4E4E4E"> 
<g>
	<g>
		<path d="M256,0C114.616,0,0,114.614,0,256s114.616,256,256,256c141.386,0,256-114.614,256-256S397.386,0,256,0z M428.717,135.014
			c17.777,25.264,29.667,53.969,34.961,84.403l-76.655-17.69L428.717,135.014z M376.984,83.281l-66.712,41.695l-17.69-76.654
			C323.016,53.617,351.72,65.504,376.984,83.281z M219.418,48.322l-17.69,76.654l-66.712-41.693
			C160.28,65.506,188.984,53.617,219.418,48.322z M83.281,135.016l41.695,66.712l-76.654,17.69
			C53.617,188.984,65.506,160.28,83.281,135.016z M83.281,376.983c-17.775-25.263-29.666-53.968-34.959-84.402l76.654,17.69
			L83.281,376.983z M135.014,428.716l66.714-41.695l17.69,76.657C188.982,458.383,160.279,446.494,135.014,428.716z M256,421.29
			l-24.496-106.151l-92.381,57.737l57.737-92.38L90.71,256l106.151-24.496l-57.74-92.381l92.383,57.737L256,90.71l24.496,106.15
			l92.38-57.739l-57.739,92.383L421.289,256l-106.15,24.496l57.739,92.381l-92.381-57.737L256,421.29z M292.582,463.679
			l17.69-76.655l66.712,41.695C351.72,446.496,323.016,458.385,292.582,463.679z M428.717,376.984l-41.695-66.712l76.655-17.69
			C458.383,323.016,446.494,351.72,428.717,376.984z"/>
	</g>
</g>
<g>
	<g>
		<path d="M264.016,256c0-17.331,12.604-31.714,29.145-34.489c-7.873-6.664-18.046-10.687-29.145-10.687
			c-24.91,0-45.176,20.265-45.176,45.176c0,24.91,20.266,45.176,45.176,45.176c11.098,0,21.272-4.024,29.145-10.689
			C276.62,287.712,264.016,273.328,264.016,256z"/>
	</g>
</g>
<g>
</g>
<g>
</g>
<g>
</g>
<g>
</g>
<g>
</g>
<g>
</g>
<g>
</g>
<g>
</g>
<g>
</g>
<g>
</g>
<g>
</g>
<g>
</g>
<g>
</g>
<g>
</g>
<g>
</g>
</svg>
